<svg width="19" height="18" viewBox="0 0 19 18" fill="none" xmlns="http://www.w3.org/2000/svg">
<path d="M16.5575 8.685L9.8075 1.935C9.5375 1.665 9.1625 1.5 8.75 1.5H3.5C2.675 1.5 2 2.175 2 3V8.25C2 8.6625 2.165 9.0375 2.4425 9.315L9.1925 16.065C9.4625 16.335 9.8375 16.5 10.25 16.5C10.6625 16.5 11.0375 16.335 11.3075 16.0575L16.5575 10.8075C16.835 10.5375 17 10.1625 17 9.75C17 9.3375 16.8275 8.955 16.5575 8.685ZM10.9575 14.298C10.567 14.6896 9.93274 14.6899 9.54188 14.2986L3.7925 8.54283C3.6052 8.35532 3.5 8.10114 3.5 7.83611V4C3.5 3.44772 3.94772 3 4.5 3H8.33611C8.60114 3 8.85532 3.1052 9.04283 3.2925L14.7931 9.0364C15.1836 9.42647 15.1842 10.0592 14.7945 10.45L10.9575 14.298Z" fill="#029CDC"/>
<path d="M5.375 6C5.99632 6 6.5 5.49632 6.5 4.875C6.5 4.25368 5.99632 3.75 5.375 3.75C4.75368 3.75 4.25 4.25368 4.25 4.875C4.25 5.49632 4.75368 6 5.375 6Z" fill="#029CDC"/>
</svg>
